<?xml version="1.0" encoding="utf-8"?>
<!-- Generator: Adobe Illustrator 21.0.0, SVG Export Plug-In . SVG Version: 6.00 Build 0)  -->
<svg version="1.1" xmlns="http://www.w3.org/2000/svg" xmlns:xlink="http://www.w3.org/1999/xlink" x="0px" y="0px"
	 viewBox="0 0 292.8 34.5" style="enable-background:new 0 0 292.8 34.5;" xml:space="preserve">
<style type="text/css">
	.st0{fill:#FFFFFF;}
	.st1{fill:#FFCF01;}
	.st2{display:none;}
	.st3{display:inline;fill:#002D62;}
	.st4{display:inline;fill:#002D62;stroke:#002D62;stroke-width:5.000000e-02;stroke-miterlimit:10;}
	.st5{font-family:'Univers-Condensed';}
	.st6{font-size:9.6px;}
	.st7{display:inline;fill:#FFCF01;}
	.st8{fill:none;stroke:#FFFFFF;stroke-width:0.7465;stroke-miterlimit:10;}
</style>
<g id="CoE">
	<path class="st0" d="M68.7,2L68.7,2l2.7,8.6h1.2L75.3,2h0v8.6h1.2V0.9h-2L72,9h0l-2.4-8.1h-2v9.6h1.1V2z M68.7,2"/>
	<rect x="78.3" y="0.9" class="st0" width="1.2" height="9.6"/>
	<path class="st0" d="M86.7,3.6c0.1-1.9-0.6-2.9-2.5-2.9c-1.9,0-3.1,0.8-3.1,3.5v2.7c0,3.7,1.8,3.8,3,3.8c0.6,0,2.8,0,2.7-3h-1.3
		c0,1.9-1.1,2-1.5,2c-0.9,0-1.7-0.3-1.7-2.6V4.5c0-1.7,0.2-1.9,0.3-2c0-0.1,0.4-0.7,1.5-0.7c0.3,0,0.8,0.1,1.1,0.4
		c0.3,0.3,0.3,0.9,0.3,1.4H86.7z M86.7,3.6"/>
	<path class="st0" d="M89.4,10.6V6.1h3.4v4.4H94V0.9h-1.2v4.2h-3.4V0.9h-1.2v9.6H89.4z M89.4,10.6"/>
	<rect x="95.8" y="0.9" class="st0" width="1.2" height="9.6"/>
	<path class="st0" d="M104.6,3.5c0.1-2-0.9-2.8-3-2.8c-2,0-3,1.2-3,3.2V7c0,2.7,1,3.7,3,3.7c1.2,0,2.2-0.3,3-0.7V5.3h-3v1.1h1.8v2.9
		c-0.3,0.2-0.8,0.4-1.7,0.4c-1.2,0-1.8-0.5-1.8-2.6V3.8c0-2,1.4-2.1,1.8-2.1c1.2,0,1.7,0.6,1.7,1.7H104.6z M104.6,3.5"/>
	<path class="st0" d="M105.4,10.6h1.2l0.7-2.3h3.7l0.7,2.3h1.4L110,0.9h-1.6L105.4,10.6z M110.7,7.2h-3.1l1.5-5.1h0L110.7,7.2z
		 M110.7,7.2"/>
	<path class="st0" d="M119.4,0.9v8.3h0l-3.8-8.3h-1.7v9.6h1.1V2.2h0l3.8,8.4h1.7V0.9H119.4z M119.4,0.9"/>
	<path class="st0" d="M130.9,10.6V9.5h-3.8V6.1h3.5V5.1h-3.5V2h3.7V0.9h-5v9.6H130.9z M130.9,10.6"/>
	<path class="st0" d="M137.5,0.9v8.3h0l-3.8-8.3H132v9.6h1.1V2.2h0l3.8,8.4h1.7V0.9H137.5z M137.5,0.9"/>
	<path class="st0" d="M146.1,3.5c0.1-2-0.9-2.8-3-2.8c-2,0-3,1.2-3,3.2V7c0,2.7,1,3.7,3,3.7c1.2,0,2.2-0.3,3-0.7V5.3h-3v1.1h1.8v2.9
		c-0.3,0.2-0.8,0.4-1.7,0.4c-1.2,0-1.8-0.5-1.8-2.6V3.8c0-2,1.4-2.1,1.8-2.1c1.2,0,1.7,0.6,1.7,1.7H146.1z M146.1,3.5"/>
	<rect x="147.9" y="0.9" class="st0" width="1.2" height="9.6"/>
	<path class="st0" d="M156.5,0.9v8.3h0l-3.8-8.3H151v9.6h1.1V2.2h0l3.8,8.4h1.7V0.9H156.5z M156.5,0.9"/>
	<path class="st0" d="M164.2,10.6V9.5h-3.8V6.1h3.5V5.1h-3.5V2h3.7V0.9h-5v9.6H164.2z M164.2,10.6"/>
	<path class="st0" d="M170.3,10.6V9.5h-3.8V6.1h3.5V5.1h-3.5V2h3.7V0.9h-5v9.6H170.3z M170.3,10.6"/>
	<path class="st0" d="M172.6,2h1.9c0.9,0,1.3,0.8,1.3,1.5c0,0.8-0.4,1.6-1.3,1.6h-1.8V2z M174,6.1c0.4,0,1.4,0.1,1.5,1.2
		c0.1,1.3,0,2.5,0.4,3.2h1.3c-0.2-0.6-0.3-2.1-0.3-2.5c-0.1-1.9-0.5-2.3-1.6-2.5v0c1.1-0.2,1.8-1.1,1.8-2.2c0-1.2-0.6-2.4-2.3-2.4
		h-3.3v9.6h1.2V6.1H174z M174,6.1"/>
	<rect x="178.3" y="0.9" class="st0" width="1.2" height="9.6"/>
	<path class="st0" d="M186.9,0.9v8.3h0l-3.8-8.3h-1.7v9.6h1.1V2.2h0l3.8,8.4h1.7V0.9H186.9z M186.9,0.9"/>
	<path class="st0" d="M195.5,3.5c0.1-2-0.9-2.8-3-2.8c-2,0-3,1.2-3,3.2V7c0,2.7,1,3.7,3,3.7c1.2,0,2.2-0.3,2.9-0.7V5.3h-3v1.1h1.8
		v2.9c-0.3,0.2-0.8,0.4-1.7,0.4c-1.2,0-1.8-0.5-1.8-2.6V3.8c0-2,1.4-2.1,1.8-2.1c1.2,0,1.7,0.6,1.7,1.7H195.5z M195.5,3.5"/>
</g>
<g id="Common_Elements_to_CoE_Master">
	<path class="st1" d="M24.2,28.6L14.3,15v9.9h3.9v9.7H0v-9.7h3.7V9.7H0V0h14.3l9.9,13.7L34.1,0h14.3v9.7h-3.7v15.2h3.7v9.7H30.2
		v-9.7h3.9V15L24.2,28.6L24.2,28.6z M24.2,28.6"/>
</g>
<g id="Common_Elements_to_Departments" class="st2">
	<path class="st3" d="M174.9,34.6v-0.3c0.4,0,0.7-0.1,0.7-0.4c0-0.1,0-0.2-0.1-0.3l-0.2-0.6h-2.1l-0.2,0.5c0,0.1-0.1,0.2-0.1,0.4
		c0,0.4,0.4,0.4,0.8,0.5v0.3h-2.4v-0.3c0.6,0,0.8-0.2,1-0.8l1.6-4.4L174,29c0.7-0.2,0.9-0.3,1.2-0.5c0.1,0.4,0.1,0.4,0.3,0.9l1.3,4
		c0.2,0.7,0.3,0.9,1,1v0.3H174.9L174.9,34.6z M174.4,29.9l-0.9,2.4h1.7L174.4,29.9L174.4,29.9z M154,33.3c-0.3,0.4-0.9,1.5-2.5,1.5
		c-1.8,0-2.9-1.3-2.9-3c0-1.6,1-3.2,3-3.2c1,0,1.6,0.4,1.9,0.7l0.4-0.4l0,1.8l-0.3,0.1c-0.1-0.3-0.2-0.6-0.6-1
		c-0.2-0.2-0.6-0.6-1.2-0.6c-1.1,0-1.9,0.9-1.9,2.4c0,1.3,0.7,2.5,2,2.5c1,0,1.4-0.6,1.7-1L154,33.3L154,33.3z M155,34.6v-0.3
		c0.7-0.1,0.7-0.2,0.7-0.8c0-0.2,0-0.4,0-0.6v-2.5c0-0.4,0-0.8,0-0.9c0-0.4-0.2-0.4-0.7-0.4v-0.3h2.5v0.3c-0.5,0.1-0.7,0.1-0.7,0.4
		c0,0.2-0.1,0.6-0.1,1v0.8c0.5,0,0.9,0,1.4,0c0.5,0,0.9,0,1.4,0v-1c0-1.1,0-1.1-0.8-1.2v-0.3h2.5v0.3c-0.7,0.1-0.7,0.1-0.7,1.2v2.5
		c0,0.2,0,1,0,1.1c0,0.3,0.2,0.4,0.6,0.4v0.3h-2.5v-0.3c0.6-0.1,0.7-0.1,0.8-0.5c0-0.2,0-0.4,0-0.8v-1.1c-0.5,0-0.9,0-1.3,0
		c-0.5,0-0.9,0-1.4,0V33c0,1.2,0,1.2,0.8,1.3v0.3L155,34.6L155,34.6z M162.2,34.6v-0.3c0.6-0.1,0.7-0.1,0.7-0.8v-0.8v-2.4
		c0-1.2,0-1.3-0.7-1.4v-0.3h2.4v0.3c-0.7,0.1-0.7,0.1-0.7,1.4v2.4c0,0.2,0,0.9,0,1c0,0.4,0.2,0.4,0.7,0.5v0.3H162.2L162.2,34.6z
		 M145.5,34.6v-0.3c0.6-0.1,0.7-0.1,0.7-0.8v-0.8v-2.4c0-1.2,0-1.3-0.7-1.4v-0.3h2.4v0.3c-0.7,0.1-0.7,0.1-0.7,1.4v2.4
		c0,0.2,0,0.9,0,1c0,0.4,0.2,0.4,0.7,0.5v0.3H145.5L145.5,34.6z M141.8,34.6v-0.3c0.7,0,0.7-0.1,0.7-1.2v-2.9l-2.1,4.5H140l-1.9-4.6
		l0,3.5c0,0.6,0.1,0.7,0.7,0.7v0.3h-2v-0.3c0.5,0,0.7-0.1,0.7-0.5c0-0.2,0-0.7,0.1-1l0.1-2.5c0-0.2,0-0.5,0-0.7
		c0-0.6-0.1-0.6-0.6-0.6v-0.3h1.8l1.8,4.5l2-4.5h1.8v0.3c-0.7,0-0.7,0.1-0.7,1v2.4c0,0.4,0,0.9,0,1.2c0,0.4,0.2,0.5,0.7,0.6v0.3
		H141.8L141.8,34.6z M178.1,34.6v-0.3c0.5,0,0.7,0,0.7-0.4c0.1-0.4,0.1-3.9,0.1-4.5c-0.3-0.3-0.5-0.4-0.8-0.4v-0.3h1.8
		c0.5,0.7,0.6,0.9,1.5,1.9l1.6,2v-2.6c0-0.9,0-1-1-1v-0.3h2.3v0.3c-0.6,0-0.7,0.1-0.7,1.1l-0.1,4.5h-0.4l-0.5-0.7
		c-0.3-0.3-0.5-0.7-0.8-1l-2.3-2.9v3c0,1,0.1,1,1,1.1v0.3H178.1L178.1,34.6z M129.1,31.7c0,2-1.4,3.1-2.9,3.1c-1.7,0-3-1.2-3-3.1
		c0-1.6,1.1-3.1,3-3C127.8,28.6,129.1,29.9,129.1,31.7L129.1,31.7z M126.1,34.2c0.3,0,0.8-0.2,1.2-0.7c0.4-0.6,0.5-1.2,0.5-2
		c0-0.8-0.2-1.4-0.7-1.9c-0.2-0.2-0.6-0.5-1-0.5c-0.5,0-0.9,0.3-1,0.5c-0.4,0.5-0.6,1.1-0.6,1.9c0,0.8,0.1,1.3,0.5,2
		C125.3,34.1,125.8,34.2,126.1,34.2L126.1,34.2z M129.7,34.3v0.3h2.4v-0.3c-0.6-0.1-0.7-0.1-0.7-0.8l0-1.7h0.6c0.7,0,1,0.1,1,0.7
		h0.3v-1.9h-0.3c0,0.6-0.2,0.7-0.9,0.7h-0.8v-2c0.2,0,0.3,0,0.7,0c1.1,0,1.5,0,1.7,0.9h0.3l-0.1-1.4h-4.3v0.3c0.4,0,0.6,0.1,0.7,0.3
		c0,0.2,0,0.8,0,1.1v2.1c0,0.2,0,0.9,0,1C130.3,34.2,130.3,34.2,129.7,34.3L129.7,34.3z M79.2,34.6v-0.3c0.6-0.1,0.7-0.1,0.7-0.8
		v-0.8v-2.4c0-1.2,0-1.3-0.7-1.4v-0.3h2.4V29c-0.7,0.1-0.7,0.1-0.7,1.4v2.4c0,0.2,0,0.9,0,1c0,0.4,0.2,0.4,0.7,0.5v0.3H79.2
		L79.2,34.6z M105.1,34.6v-0.3c0.6-0.1,0.7-0.1,0.7-0.8v-0.8v-2.4c0-1.2,0-1.3-0.7-1.4v-0.3h2.4V29c-0.7,0.1-0.7,0.1-0.7,1.4v2.4
		c0,0.2,0,0.9,0,1c0,0.4,0.2,0.4,0.7,0.5v0.3H105.1L105.1,34.6z M72,34.6v-0.3c0.5,0,0.7,0,0.7-0.4c0.1-0.4,0.1-3.9,0.1-4.5
		c-0.3-0.3-0.5-0.4-0.9-0.4v-0.3h1.8c0.5,0.7,0.6,0.9,1.5,1.9l1.6,2V30c0-0.9,0-1-1-1v-0.3h2.3V29c-0.6,0-0.7,0.1-0.7,1.1l-0.1,4.5
		h-0.3L76.6,34c-0.3-0.3-0.5-0.7-0.8-1l-2.3-2.9v3c0,0.9,0.1,1,1,1.1v0.3H72L72,34.6z M100.2,32.7l0.3,0c0.3,1,0.9,1.5,1.7,1.5
		c0.6,0,1.2-0.3,1.2-0.9c0-0.7-0.6-0.9-0.9-1c-0.2-0.1-0.5-0.2-0.7-0.3c-0.5-0.2-1.4-0.5-1.4-1.7c0-1.1,0.9-1.7,1.9-1.7
		c0.4,0,0.8,0.1,1.3,0.4l0.4-0.3l0.2,1.7l-0.3,0.1c-0.1-0.4-0.2-0.6-0.4-0.9c-0.3-0.4-0.7-0.5-1.1-0.5c-0.6,0-1,0.3-1,0.8
		c0,0.7,0.7,0.9,1.3,1.1c0.3,0.1,0.6,0.2,0.8,0.3c0.5,0.3,0.8,0.8,0.8,1.5c0,1-0.8,1.9-2.1,1.9c-0.8,0-1.3-0.3-1.5-0.5l-0.5-0.4
		L100.2,32.7L100.2,32.7z M109.9,34.6v-0.2c0.5,0,0.7-0.2,0.7-0.7v-4.3h-0.7c-0.7,0-1.1,0-1.2,1h-0.3l0-1.6h5.3l0.1,1.6h-0.3
		c-0.1-1-0.5-1-1.2-1h-0.7v4.3c0,0.5,0.1,0.7,0.7,0.7v0.2H109.9L109.9,34.6z M67.6,28.7V29c-0.8,0.1-0.8,0.1-0.8,1.3v1.4
		c0,0.7,0,1.3,0.4,1.9c0.3,0.4,0.8,0.5,1.1,0.5c0.8,0,1.3-0.4,1.5-1.1c0.2-0.5,0.2-1.6,0.2-2.3c0-0.2,0-0.9,0-1.1
		c0-0.5-0.3-0.6-0.8-0.6v-0.3h2.2V29c-0.6,0-0.7,0.1-0.7,0.7c0,0.1-0.1,1.8-0.1,2c0,0.4,0,0.9-0.1,1.3c-0.4,1.6-1.9,1.7-2.3,1.7
		c-0.3,0-1-0.1-1.5-0.4c-0.9-0.6-0.9-1.5-0.9-2.4v-1.3c0-0.6,0-0.9,0-1.1c-0.1-0.4-0.2-0.4-0.7-0.5v-0.3L67.6,28.7L67.6,28.7z
		 M88.4,28.7V29c-0.6,0.1-0.6,0.2-1.1,1.4l-1.8,4.3h-0.3l-1.6-4.3c-0.4-1.1-0.4-1.2-1-1.3v-0.3h2.8V29c-0.5,0-0.8,0-0.8,0.4
		c0,0.2,0,0.3,0.2,0.8l1,3l1.2-3.1c0.1-0.2,0.2-0.5,0.2-0.6c0-0.4-0.4-0.4-0.8-0.4v-0.3H88.4L88.4,28.7z M116.2,34.6v-0.3
		c0.5,0,0.6-0.1,0.8-0.2c0.1-0.1,0.1-0.3,0.1-0.9v-1l-1.6-2.4c-0.4-0.6-0.4-0.6-1-0.7v-0.3h3.1V29c-0.6,0-0.9,0-0.9,0.3
		c0,0.2,0.1,0.3,0.3,0.6l0.9,1.5l0.8-1.5c0.1-0.3,0.2-0.5,0.2-0.6c0-0.3-0.2-0.3-0.7-0.3v-0.3h2.3V29c-0.6,0-0.8,0.2-1.4,1.3
		l-0.9,1.5v1.2c0,1.1,0,1.1,0.9,1.2v0.3L116.2,34.6L116.2,34.6z M93.4,34.6c0-0.4,0.1-1.1,0.1-1.5h-0.3c-0.2,1.1-0.8,1-1.6,1
		c-0.8,0-0.9-0.2-0.9-0.6v-1.6h0.6c0.7,0,0.9,0.1,0.9,0.7h0.3v-1.9h-0.3c-0.1,0.5-0.2,0.7-0.9,0.7h-0.6v-2.1h0.7
		c1,0,1.4,0.1,1.5,0.9h0.3l0-1.4h-4.2V29c0.4,0,0.6,0.1,0.7,0.3c0,0.2,0,0.8,0,1.1v2.1c0,0.2,0,0.9,0,1c0,0.6-0.1,0.7-0.7,0.8v0.3
		H93.4L93.4,34.6z M171.2,32v0.3c-0.5,0-0.5,0.2-0.6,1.3v0.4c-0.5,0.3-1.1,0.7-2.3,0.7c-2,0-3-1.5-3-3.1c0-1.9,1.3-3.1,2.9-3.1
		c1,0,1.6,0.4,2.1,0.7l0.3-0.3l0,1.8l-0.2,0c-0.1-0.4-0.3-0.8-0.7-1.2c-0.2-0.2-0.6-0.4-1.2-0.4c-1,0-1.9,0.9-1.9,2.6
		c0,1.3,0.7,2.5,1.8,2.5c0.7,0,1-0.5,1-0.5c0.1-0.2,0.1-0.3,0.1-0.6c0-0.8-0.1-0.8-0.8-0.8V32H171.2L171.2,32z M96.1,31.4
		c0.2,0,0.4,0.1,0.5,0.1c0.7,0,1.2-0.5,1.2-1c0-0.7-0.3-1.3-1.4-1.3c-0.2,0-0.2,0-0.4,0V31.4L96.1,31.4z M96.1,32.7
		c0,1.3,0,1.5,0.7,1.5v0.3h-2.5v-0.3c0.6-0.1,0.7-0.2,0.7-0.8c0-0.2,0-0.5,0-0.8v-2.1c0-0.7,0-1,0-1.1c0-0.3-0.2-0.4-0.7-0.4v-0.3
		l2.7,0c1.4,0,1.9,0.7,1.9,1.5c0,0.6-0.4,1.3-1.2,1.5l1,1.8c0.4,0.7,0.6,0.8,1.1,0.9v0.2c-0.1,0-0.3,0-0.4,0c-1.1,0-1.6-0.4-2-1.4
		l-0.3-0.7c-0.3-0.7-0.5-0.7-1-0.7V32.7L96.1,32.7z M96.1,32.7"/>
	<path class="st3" d="M68.7,9.3"/>
	<path class="st3" d="M144.2,18.6"/>
	<path class="st3" d="M159.7,7.4"/>
	<path class="st3" d="M178,24.7"/>
	<text transform="matrix(1 0 0 1 64.3125 7.2813)" class="st4 st5 st6">COLLEGE OF ENGINEERING</text>
	<path class="st7" d="M24,28.6l-9.8-13.4v9.8H18v9.7H-0.1v-9.7h3.7v-15h-3.7V0.2h14.2L24,13.8l9.8-13.5H48v9.7h-3.7v15H48v9.7H29.9
		v-9.7h3.9v-9.8L24,28.6L24,28.6z M24,28.6"/>
</g>
<g id="stroke">
	<line class="st8" x1="58" y1="0.2" x2="58" y2="34.6"/>
</g>
</svg>
